<svg width="1240" height="178" viewBox="0 0 1240 178" fill="none" xmlns="http://www.w3.org/2000/svg">
<g clip-path="url(#clip0_41_21062)">
<path d="M1001.48 -1.34339C1000.07 -1.91791 998.917 -2.78208 998.152 -3.83248C997.372 -2.73217 996.163 -1.83301 994.684 -1.2531C996.092 -0.678578 997.248 0.185587 998.013 1.23599C998.788 0.133237 999.998 -0.766807 1001.48 -1.34339ZM1016.25 -1.34339C999.886 -1.34339 998.1 -0.053699 998.082 12.1597L998.082 12.0823C998.082 0.0107894 996.262 -1.2789 979.912 -1.2789C996.262 -1.2789 998.065 -2.56859 998.065 -14.782L998.065 -14.7046C998.065 -2.60729 999.886 -1.26601 1016.22 -1.26601L1016.25 -1.34339Z" fill="white"/>
<path d="M1036 105.282C1036 115.164 1036.84 116.242 1044.51 116.242C1036.84 116.242 1036 117.321 1035.98 127.203C1035.98 117.321 1035.14 116.242 1027.47 116.242C1035.14 116.242 1036 115.164 1036 105.282Z" fill="white"/>
<ellipse opacity="0.7" cx="976.814" cy="75.8058" rx="0.829218" ry="0.829696" transform="rotate(90 976.814 75.8058)" fill="white"/>
<path d="M442.236 154.56C442.236 144.677 443.075 143.599 450.747 143.599C443.075 143.599 442.236 142.521 442.219 132.639C442.219 142.521 441.38 143.599 433.708 143.599C441.38 143.599 442.236 144.677 442.236 154.56Z" fill="white"/>
<path d="M711.98 151.712C721.862 151.712 722.94 152.551 722.94 160.223C722.94 152.551 724.018 151.712 733.901 151.695C724.018 151.695 722.94 150.856 722.94 143.184C722.94 150.856 721.862 151.712 711.98 151.712Z" fill="white"/>
<ellipse opacity="0.7" cx="1.65844" cy="1.65939" rx="1.65844" ry="1.65939" transform="matrix(4.37114e-08 -1 -1 -4.37114e-08 670.702 65.1619)" fill="white"/>
<path d="M762.038 105.282C762.038 115.164 762.877 116.242 770.549 116.242C762.877 116.242 762.038 117.32 762.021 127.203C762.021 117.32 761.182 116.242 753.51 116.242C761.182 116.242 762.038 115.164 762.038 105.282Z" fill="white"/>
<ellipse opacity="0.7" cx="713.464" cy="124.762" rx="0.829218" ry="0.829696" transform="rotate(90 713.464 124.762)" fill="white"/>
<ellipse opacity="0.7" cx="589.889" cy="90.8163" rx="0.829218" ry="0.829696" transform="rotate(90 589.889 90.8163)" fill="white"/>
<ellipse opacity="0.7" cx="529.422" cy="144.079" rx="1.65844" ry="1.65939" transform="rotate(90 529.422 144.079)" fill="white"/>
<path d="M818.677 52.6822C818.677 62.5647 819.516 63.6428 827.188 63.6428C819.516 63.6428 818.677 64.7209 818.659 74.6035C818.659 64.7209 817.821 63.6428 810.149 63.6428C817.821 63.6428 818.677 62.5647 818.677 52.6822Z" fill="white"/>
<line y1="-0.2" x2="45.6589" y2="-0.2" transform="matrix(-0.383894 0.923377 -0.92322 -0.384272 814.206 68.9714)" stroke="white" stroke-width="0.4"/>
<path fill-rule="evenodd" clip-rule="evenodd" d="M785.038 125.84C783.256 123.916 783.433 121.16 785.032 119.643C786.312 118.43 788.184 117.872 789.864 118.522C790.419 118.737 790.954 119.084 791.439 119.583L791.442 119.586L791.45 119.581L791.45 119.579C791.381 118.888 791.463 118.256 791.661 117.692C792.262 115.978 793.929 114.893 795.683 114.696C797.872 114.453 800.091 116.095 800.409 118.702C800.632 120.528 799.584 122.733 798.557 124.894C797.869 126.342 797.191 127.77 796.909 129.052C796.86 129.276 796.823 129.495 796.8 129.708C796.742 130.253 796.775 130.765 796.934 131.233L796.935 131.235L796.937 131.241C796.949 131.277 796.869 131.312 796.852 131.282L796.846 131.272C796.591 130.85 796.222 130.494 795.769 130.188C795.591 130.067 795.4 129.954 795.198 129.848C794.037 129.235 792.509 128.832 790.96 128.423C788.647 127.813 786.289 127.19 785.038 125.84Z" fill="white"/>
<path d="M223.249 89.9424C221.318 89.1544 219.733 87.9692 218.683 86.5284C217.614 88.0376 215.956 89.2709 213.927 90.0663C215.859 90.8543 217.444 92.0396 218.493 93.4803C219.556 91.9678 221.216 90.7333 223.249 89.9424ZM243.511 89.9424C221.062 89.9424 218.612 91.7114 218.588 108.463L218.588 108.357C218.588 91.7998 216.091 90.0309 193.666 90.0309C216.091 90.0309 218.565 88.262 218.565 71.5102L218.565 71.6163C218.565 88.2089 221.062 90.0486 243.463 90.0486L243.511 89.9424Z" fill="white"/>
<path d="M252.896 169.472C262.778 169.472 263.856 168.633 263.856 160.961C263.856 168.633 264.935 169.472 274.817 169.489C264.935 169.489 263.856 170.328 263.856 178C263.856 170.328 262.778 169.472 252.896 169.472Z" fill="white"/>
<ellipse opacity="0.7" cx="259.243" cy="19.2591" rx="0.829218" ry="0.829696" transform="rotate(90 259.243 19.2591)" fill="white"/>
<ellipse opacity="0.7" cx="103.649" cy="26.434" rx="0.829218" ry="0.829696" transform="rotate(90 103.649 26.434)" fill="white"/>
<ellipse opacity="0.7" cx="298.724" cy="33.5593" rx="1.65844" ry="1.65939" transform="rotate(90 298.724 33.5593)" fill="white"/>
<path d="M413.845 66.51C413.845 56.6274 413.006 55.5493 405.334 55.5493C413.006 55.5493 413.845 54.4712 413.862 44.5886C413.862 54.4712 414.701 55.5493 422.373 55.5493C414.701 55.5493 413.845 56.6274 413.845 66.51Z" fill="white"/>
<line y1="-0.2" x2="72.7244" y2="-0.2" transform="matrix(0.217818 0.975989 -0.976043 0.217579 395.415 -21.6643)" stroke="white" stroke-width="0.4"/>
<line y1="-0.2" x2="42.642" y2="-0.2" transform="matrix(-0.708471 0.70574 -0.706149 -0.708064 448.944 19.8315)" stroke="white" stroke-width="0.4"/>
<ellipse opacity="0.7" cx="452.286" cy="16.7715" rx="1.65844" ry="1.65939" transform="rotate(90 452.286 16.7715)" fill="white"/>
<path d="M882.855 67.0635C882.855 76.9461 883.694 78.0242 891.366 78.0242C883.694 78.0242 882.855 79.1023 882.838 88.9849C882.838 79.1023 881.999 78.0242 874.327 78.0242C881.999 78.0242 882.855 76.9461 882.855 67.0635Z" fill="white"/>
<line y1="-0.2" x2="41.4924" y2="-0.2" transform="matrix(0.427207 -0.904154 0.904344 0.426804 885.708 71.9397)" stroke="white" stroke-width="0.4"/>
<ellipse opacity="0.7" cx="905.093" cy="29.6938" rx="1.65844" ry="1.65939" transform="rotate(90 905.093 29.6938)" fill="white"/>
<path d="M1173.61 138.405C1173.61 148.288 1174.45 149.366 1182.12 149.366C1174.45 149.366 1173.61 150.444 1173.59 160.327C1173.59 150.444 1172.75 149.366 1165.08 149.366C1172.75 149.366 1173.61 148.288 1173.61 138.405Z" fill="white"/>
<ellipse opacity="0.7" cx="1187.88" cy="24.5115" rx="1.65844" ry="1.65939" transform="rotate(90 1187.88 24.5115)" fill="white"/>
<ellipse opacity="0.7" cx="1108.23" cy="51.0464" rx="1.65844" ry="1.65939" transform="rotate(90 1108.23 51.0464)" fill="white"/>
<ellipse opacity="0.7" cx="1165.28" cy="72.2128" rx="0.829218" ry="0.829696" transform="rotate(90 1165.28 72.2128)" fill="white"/>
</g>
<defs>
<clipPath id="clip0_41_21062">
<rect width="178" height="1240" fill="white" transform="translate(1240) rotate(90)"/>
</clipPath>
</defs>
</svg>
