<?xml version="1.0" standalone="no"?>
<!DOCTYPE svg PUBLIC "-//W3C//DTD SVG 20010904//EN"
 "http://www.w3.org/TR/2001/REC-SVG-20010904/DTD/svg10.dtd">
<svg version="1.0" xmlns="http://www.w3.org/2000/svg"
 width="700.000000pt" height="700.000000pt" viewBox="0 0 700.000000 700.000000"
 preserveAspectRatio="xMidYMid meet">
<metadata>
Created by potrace 1.14, written by Peter Selinger 2001-2017
</metadata>
<g transform="translate(0.000000,700.000000) scale(0.100000,-0.100000)"
fill="#000000" stroke="none">
<path d="M0 2851 l0 -2851 3500 0 3500 0 0 2850 0 2850 -802 0 -803 0 118
-118 c64 -64 117 -122 117 -128 0 -7 -7 -17 -15 -24 -12 -10 -38 11 -161 129
l-147 141 -205 -2 -206 -3 -12 -50 -13 -50 5 53 6 52 -587 0 -587 0 16 -22
c61 -85 99 -203 99 -303 -1 -84 -24 -149 -109 -313 l-59 -113 0 -114 0 -115
-95 6 c-84 6 -191 -2 -313 -22 l-37 -7 14 41 c42 120 125 248 223 347 91 92
145 164 178 235 25 56 29 77 30 155 0 82 -3 96 -33 158 l-33 67 -657 0 c-361
0 -710 -5 -775 -10 -320 -27 -437 -117 -492 -379 -17 -83 -35 -278 -35 -390 0
-46 -2 -82 -4 -80 -2 2 -9 88 -16 190 -23 380 -82 524 -245 600 -124 59 -155
61 -787 66 l-578 5 0 -2851z m4662 2651 c104 -111 139 -255 103 -411 -33 -138
-89 -204 -276 -327 -134 -87 -178 -134 -219 -230 -12 -27 -23 -50 -25 -53 -3
-2 -19 7 -37 21 -61 46 -162 100 -258 139 -52 21 -95 41 -94 45 1 4 25 27 55
51 76 62 236 138 354 169 142 36 231 83 300 155 82 86 100 131 100 254 -1 105
-11 141 -66 224 -21 31 -21 33 -3 23 11 -6 41 -33 66 -60z m-2077 1 c66 -21
139 -69 196 -129 93 -98 114 -164 127 -389 7 -132 11 -157 35 -210 16 -33 42
-77 58 -98 17 -21 29 -40 28 -41 -2 -1 -38 -20 -79 -40 -84 -42 -172 -100
-243 -159 -26 -22 -49 -38 -52 -36 -2 3 -9 38 -16 79 -16 106 -6 243 30 380
38 149 46 219 31 300 -17 91 -55 163 -117 220 -70 64 -144 92 -245 94 -42 0
-74 4 -72 8 6 9 94 35 139 41 45 7 124 -2 180 -20z m1439 -158 l61 -59 -55 -7
c-30 -4 -66 -10 -80 -13 -25 -7 -25 -6 -22 47 2 33 -2 68 -12 91 l-15 37 31
-18 c17 -10 59 -45 92 -78z m-960 9 l50 -17 -24 -16 c-14 -9 -42 -31 -62 -49
l-37 -34 -16 38 c-8 20 -32 53 -53 72 l-37 35 65 -6 c36 -3 87 -14 114 -23z
m2793 -15 c36 -11 103 -80 103 -107 0 -12 8 -8 27 17 73 93 238 94 316 2 33
-40 51 -103 42 -156 -13 -84 -63 -141 -220 -250 -110 -76 -171 -131 -190 -172
l-18 -37 -19 53 c-16 41 -45 79 -132 169 -139 145 -172 190 -186 255 -15 66
-1 124 42 173 61 69 130 85 235 53z m-2462 -3 l40 -13 -30 -7 c-16 -4 -54 -19
-84 -33 -128 -63 -176 -229 -112 -380 l22 -50 -35 -84 c-33 -79 -36 -84 -77
-98 -47 -15 -51 -13 -104 76 -72 120 -73 334 -2 455 68 116 244 178 382 134z
m825 -120 c53 -27 120 -81 120 -98 0 -5 -10 -3 -22 4 -13 6 -54 12 -93 12 -59
0 -79 -4 -124 -29 -86 -47 -139 -134 -156 -256 -6 -43 -12 -50 -77 -98 -66
-50 -73 -53 -114 -46 -40 6 -44 9 -50 42 -4 19 -4 69 -1 109 11 147 135 336
248 378 71 25 200 17 269 -18z m-840 -26 l60 -51 -64 -74 c-36 -40 -77 -92
-92 -114 -14 -23 -30 -41 -34 -41 -13 0 -30 76 -30 131 1 30 7 71 14 92 15 41
62 107 76 107 5 0 36 -23 70 -50z m849 -145 c37 -98 37 -102 -1 -109 -18 -3
-82 -26 -141 -50 l-108 -44 7 36 c10 57 49 125 90 162 39 34 113 72 125 64 4
-2 17 -29 28 -59z m-1735 -42 c-52 -51 -76 -113 -76 -190 0 -88 34 -156 118
-231 53 -47 64 -62 64 -88 0 -17 5 -55 10 -85 10 -53 10 -54 -23 -86 l-33 -33
-64 32 c-151 74 -272 275 -257 423 12 118 107 237 225 280 67 25 77 19 36 -22z
m2359 -115 c27 -77 40 -128 33 -128 -2 0 -23 9 -47 20 -24 11 -54 20 -66 20
-29 0 -29 11 2 56 14 21 28 54 31 75 4 21 10 36 14 34 4 -3 19 -38 33 -77z
m-2273 11 c55 -12 55 -12 40 -72 -6 -23 -16 -86 -23 -141 l-13 -98 -32 27
c-67 56 -107 163 -95 253 5 40 7 42 39 42 18 0 56 -5 84 -11z m-344 -36 c-8
-16 -19 -47 -25 -70 l-12 -42 -45 28 c-24 16 -61 32 -81 36 -34 6 -36 8 -18
18 38 22 140 56 168 56 27 1 27 0 13 -26z m-285 -102 c123 -39 196 -109 309
-296 67 -110 141 -172 253 -209 15 -5 11 -15 -32 -78 -59 -89 -83 -136 -126
-245 l-32 -85 -35 44 c-93 114 -130 190 -189 387 -48 160 -76 217 -144 286
-100 102 -230 137 -361 97 -38 -12 -86 -33 -106 -47 -49 -33 -48 -18 2 33 89
92 181 131 312 132 58 0 106 -6 149 -19z m2886 -17 c92 -44 171 -143 189 -234
l7 -35 -30 33 c-78 82 -202 104 -308 53 -54 -25 -145 -106 -156 -138 -2 -7
-46 -17 -97 -24 l-94 -12 -31 32 -32 31 39 75 c45 88 109 150 204 197 125 62
212 68 309 22z m658 -66 c52 -177 -19 -378 -175 -493 -80 -59 -143 -76 -320
-85 -177 -9 -231 -24 -317 -89 l-52 -40 -25 56 c-37 80 -91 165 -157 248 l-58
74 57 12 c97 20 287 6 427 -31 105 -28 132 -31 221 -28 89 3 108 7 166 36 129
63 200 177 202 323 0 43 4 75 8 73 4 -3 14 -28 23 -56z m678 -100 c70 -184
121 -363 152 -532 14 -74 14 -90 3 -97 -28 -19 -36 -5 -57 102 -33 162 -84
344 -136 475 -25 64 -45 119 -45 124 0 7 14 14 41 19 4 0 22 -41 42 -91z
m-2548 23 c37 -7 35 -8 -38 -15 -306 -29 -578 -193 -746 -450 -28 -43 -51 -82
-51 -87 0 -4 25 3 55 16 165 73 325 47 457 -74 107 -98 147 -206 154 -416 l4
-130 -25 120 c-32 160 -48 217 -81 282 -55 107 -158 169 -299 180 -75 6 -150
-9 -253 -49 l-57 -23 -22 -77 c-135 -475 97 -977 545 -1180 428 -194 957 -41
1214 352 27 41 52 77 55 80 14 14 -43 -114 -80 -178 -282 -497 -904 -698
-1416 -456 -277 131 -476 348 -577 628 -257 720 270 1479 1031 1484 50 1 108
-3 130 -7z m1264 -61 c16 -8 17 -17 9 -72 -12 -88 -17 -101 -36 -93 -9 3 -62
13 -117 22 -55 8 -113 18 -128 22 l-29 6 21 27 c25 31 78 66 130 84 43 16 125
18 150 4z m-1356 -196 c4 -4 18 -2 32 4 23 11 24 10 13 -14 -14 -30 -3 -40 52
-49 82 -14 88 -18 35 -25 -95 -13 -106 -21 -84 -61 10 -19 9 -20 -11 -9 -33
18 -48 5 -56 -47 -12 -84 -20 -92 -27 -25 -3 35 -11 69 -17 78 -11 13 -16 13
-36 -1 -23 -15 -23 -15 -12 10 15 34 6 42 -72 59 -36 8 -55 14 -43 15 12 1 45
6 73 12 51 11 65 30 38 57 -16 16 -3 15 22 0 28 -18 38 -3 52 73 l11 64 12
-67 c6 -37 14 -70 18 -74z m-1653 -45 c-49 -169 73 -325 275 -354 46 -6 53
-11 90 -62 22 -31 46 -63 53 -73 10 -14 11 -27 3 -58 -9 -33 -16 -41 -42 -46
-83 -16 -194 4 -283 52 -77 42 -170 133 -196 194 -31 73 -26 191 13 269 25 50
84 125 93 116 2 -2 -1 -19 -6 -38z m210 -132 c17 -48 39 -105 50 -127 25 -50
25 -50 -8 -50 -43 0 -128 47 -167 93 -34 39 -64 111 -53 123 12 11 123 54 136
51 7 -1 26 -41 42 -90z m2053 -85 c93 -31 264 -148 244 -168 -4 -4 -40 9 -80
29 -198 98 -337 110 -492 42 -113 -49 -183 -192 -225 -460 -6 -38 -13 -71 -16
-74 -2 -2 -4 35 -4 83 0 111 33 275 68 340 104 191 308 275 505 208z m1224
-29 c-4 -32 -14 -82 -22 -112 l-17 -54 -17 29 c-10 16 -32 43 -49 61 l-32 31
45 22 c25 12 55 35 67 50 13 16 25 29 27 29 2 1 1 -25 -2 -56z m-3622 -105 c6
-16 0 -18 -53 -18 -34 0 -72 -4 -86 -10 -14 -5 -26 -7 -26 -3 0 13 84 115 114
138 l31 25 6 -58 c4 -31 10 -65 14 -74z m3359 77 c150 -39 246 -181 232 -347
-6 -86 -20 -116 -31 -67 -19 86 -85 162 -168 194 -62 23 -184 17 -245 -13
l-42 -20 -78 30 c-42 17 -81 35 -86 39 -14 13 -36 83 -28 89 86 60 114 76 161
91 70 23 206 24 285 4z m1033 -67 c167 -221 277 -235 563 -70 52 30 106 61
120 69 l25 15 -25 -19 c-275 -201 -337 -269 -348 -383 -5 -54 23 -145 74 -240
20 -36 28 -56 20 -45 -82 104 -105 131 -137 156 -77 61 -148 73 -250 43 -54
-16 -184 -79 -269 -130 -60 -36 -53 -30 65 59 173 129 229 206 228 312 -1 67
-24 135 -78 227 -19 32 -33 58 -31 58 2 0 21 -24 43 -52z m-3015 -129 c70 -36
148 -91 148 -105 0 -7 -10 -16 -22 -20 -13 -3 -48 -18 -78 -32 -32 -15 -80
-28 -113 -30 -54 -4 -66 -1 -178 54 -65 32 -118 62 -116 68 2 5 28 15 58 22
30 7 79 24 109 38 69 32 135 34 192 5z m998 -14 c49 -19 98 -35 107 -35 27 0
52 -20 35 -27 -8 -3 -62 -30 -120 -60 -101 -52 -111 -55 -167 -51 -66 4 -215
63 -215 85 0 14 64 60 135 98 66 35 116 33 225 -10z m-2223 -80 l158 -80 115
0 115 0 -3 -130 c-3 -113 9 -260 25 -301 4 -10 -8 -9 -53 6 -121 42 -230 116
-363 248 -140 139 -242 187 -379 180 -132 -6 -245 -78 -306 -195 -30 -57 -34
-35 -10 48 40 138 160 250 314 295 26 8 83 12 137 11 l91 -3 159 -79z m2977
-25 c76 -43 111 -71 213 -170 163 -159 260 -206 407 -198 68 3 91 10 144 38
68 36 120 89 157 160 21 40 24 42 25 19 1 -71 -64 -194 -137 -260 -96 -87
-198 -123 -330 -117 -91 4 -94 5 -236 75 -171 86 -211 97 -320 91 l-82 -4 3
134 c3 120 -6 223 -24 290 l-7 23 68 -26 c37 -14 91 -38 119 -55z m248 55 c24
-9 60 -29 79 -44 l34 -29 -45 -58 c-25 -31 -50 -59 -57 -61 -6 -2 -37 19 -68
47 -31 28 -78 67 -106 86 -27 20 -49 40 -49 44 0 29 141 39 212 15z m-757
-340 c144 -69 6 -335 -189 -361 -94 -13 -141 32 -134 127 7 96 90 195 195 234
51 18 88 18 128 0z m-2423 -50 c33 -31 83 -71 111 -90 l51 -34 -39 -17 c-78
-32 -228 -2 -281 57 -15 17 -13 22 31 78 27 34 52 61 58 61 5 0 36 -25 69 -55z
m-218 -62 c24 -47 100 -109 151 -123 62 -17 182 -9 235 17 l41 21 77 -31 c91
-36 92 -36 108 -82 11 -34 10 -36 -20 -62 -17 -14 -60 -40 -96 -57 -62 -30
-71 -31 -191 -31 -124 0 -127 0 -194 35 -84 43 -136 111 -161 210 -16 63 -15
150 3 196 6 15 9 12 19 -22 6 -22 19 -54 28 -71z m1736 40 c0 -25 30 -53 57
-53 26 0 63 32 63 55 0 28 68 19 101 -14 38 -38 39 -82 3 -110 -33 -26 -44
-26 -44 -1 0 34 -28 35 -59 1 -40 -43 -90 -43 -128 -1 -37 42 -60 39 -54 -7 3
-20 -27 -15 -49 7 -23 23 -27 78 -7 102 30 38 117 54 117 21z m1455 -68 c80
-21 148 -60 218 -124 86 -80 102 -115 102 -231 0 -83 -3 -102 -27 -150 -30
-62 -108 -146 -92 -100 5 14 9 59 9 100 0 64 -4 82 -28 122 -48 83 -134 136
-249 152 -44 7 -51 12 -103 78 -30 40 -53 79 -51 87 2 9 7 28 10 43 4 17 14
28 29 31 50 10 126 6 182 -8z m1450 -47 c-37 -352 -140 -733 -268 -983 -21
-42 -24 -44 -42 -31 -18 13 -18 16 17 92 114 251 208 592 232 844 14 134 15
140 42 140 25 0 25 -1 19 -62z m-1619 -173 c63 -89 119 -214 154 -343 53 -199
125 -304 248 -364 60 -30 75 -33 157 -33 82 0 96 3 160 35 39 19 75 36 80 38
6 3 -12 -19 -40 -47 -31 -33 -78 -66 -123 -89 -64 -31 -85 -36 -161 -40 -204
-10 -328 68 -469 296 -71 114 -119 161 -209 204 -35 17 -63 32 -63 34 0 3 19
32 41 66 46 67 120 220 140 285 15 51 20 48 85 -42z m-3004 -47 l28 -26 -45
-22 c-24 -12 -57 -36 -71 -53 l-27 -32 6 55 c4 30 14 80 23 110 l16 54 21 -29
c12 -17 34 -42 49 -57z m1749 61 c14 -7 30 -7 53 1 29 9 41 7 102 -22 75 -35
194 -52 194 -28 0 10 3 10 15 0 8 -7 15 -21 15 -32 0 -15 -5 -18 -19 -13 -11
3 -46 -2 -77 -11 -35 -10 -88 -16 -133 -15 -96 2 -147 2 -241 0 -44 -1 -101 5
-137 15 -33 9 -68 13 -77 10 -21 -8 -22 29 -1 46 12 10 15 10 15 0 0 -24 119
-6 190 28 73 36 74 36 101 21z m1889 -54 c-37 -48 -88 -95 -102 -95 -3 0 -6
20 -6 45 -1 24 -6 55 -11 68 -9 24 -9 25 53 25 35 0 72 4 82 10 32 18 28 4
-16 -53z m-2891 -220 c19 -27 54 -73 78 -102 l44 -52 -38 -8 c-21 -4 -101 -8
-178 -7 -120 0 -154 4 -240 27 -136 38 -217 48 -292 37 -190 -26 -315 -159
-331 -352 l-7 -83 -19 67 c-29 104 -20 207 27 302 93 187 239 266 494 266 130
0 259 44 317 109 l20 22 45 -88 c25 -48 61 -110 80 -138z m2430 190 c78 -27
154 -106 167 -174 5 -25 2 -29 -43 -49 -99 -42 -98 -43 -123 35 -13 37 -36 97
-51 132 -16 35 -29 65 -29 67 0 9 40 3 79 -11z m-1394 -81 c116 1 219 6 230
10 11 4 3 -8 -19 -28 -112 -103 -322 -101 -443 3 -13 11 -23 22 -23 25 0 3 10
2 23 -3 12 -5 117 -8 232 -7z m1039 -269 c112 -77 201 -240 201 -370 0 -131
-122 -276 -259 -309 l-29 -7 42 47 c118 134 85 304 -87 446 -26 21 -32 34 -32
65 -1 21 -5 58 -10 83 -8 42 -7 47 22 77 27 28 33 30 61 21 16 -6 58 -30 91
-53z m-2343 -39 c41 -8 100 -18 132 -21 l57 -6 -20 -30 c-45 -62 -173 -110
-254 -95 l-39 7 6 62 c7 74 15 97 32 97 7 0 46 -6 86 -14z m464 -26 l29 -30
-23 -48 c-77 -158 -248 -272 -408 -272 -114 0 -233 84 -289 203 -33 71 -32 98
1 59 14 -17 49 -42 77 -56 123 -62 284 -14 368 110 28 39 33 42 97 51 110 16
117 16 148 -17z m1672 -37 c17 -124 8 -262 -28 -399 -27 -102 -34 -149 -34
-224 0 -108 11 -152 57 -230 61 -101 187 -169 317 -171 l56 -1 -60 -20 c-164
-54 -368 19 -480 172 -59 80 -76 144 -85 320 -10 176 -25 233 -89 321 l-38 53
61 29 c70 33 202 120 261 171 22 20 43 35 47 36 4 0 10 -26 15 -57z m-1527
-73 c67 -45 174 -99 257 -129 l62 -23 -42 -36 c-106 -89 -198 -135 -378 -187
-215 -63 -302 -123 -365 -250 -33 -66 -37 -83 -37 -152 0 -84 19 -151 59 -215
l25 -39 -27 18 c-39 25 -109 124 -133 187 -62 165 -14 367 115 485 29 27 98
76 153 111 115 70 168 126 208 217 15 35 31 59 37 56 6 -4 36 -23 66 -43z
m1631 -102 c51 -52 79 -122 79 -201 0 -50 -4 -69 -15 -73 -8 -3 -46 -1 -86 6
-70 12 -71 12 -64 39 15 58 34 178 35 219 0 23 4 42 9 42 5 0 24 -15 42 -32z
m-504 -76 c46 -70 60 -101 73 -170 15 -76 8 -186 -16 -260 -47 -143 -221 -236
-379 -202 l-60 13 41 13 c93 27 157 85 189 167 23 61 17 182 -12 247 l-20 46
34 85 c36 90 34 88 113 108 3 0 19 -20 37 -47z m-668 -8 c2 -2 6 -37 9 -78 14
-223 -168 -456 -357 -456 -68 0 -163 32 -216 72 -51 38 -67 64 -32 51 45 -16
160 -8 203 14 85 45 148 143 160 249 7 54 8 56 78 110 66 51 73 55 111 48 22
-3 42 -8 44 -10z m491 4 c0 -26 -67 -165 -110 -228 -24 -36 -90 -113 -146
-172 -79 -82 -112 -126 -141 -185 -37 -75 -38 -80 -38 -182 0 -92 3 -113 25
-156 29 -59 110 -144 166 -173 52 -28 18 -29 -59 -3 -139 48 -242 164 -282
318 -34 129 -15 217 88 417 l62 119 0 116 0 116 165 1 c91 0 183 6 205 11 55
15 65 15 65 1z m-1622 -67 c20 -10 49 -21 64 -25 l26 -6 -29 -52 c-16 -29 -29
-63 -29 -76 0 -13 -4 -21 -9 -17 -18 10 -78 195 -65 195 3 0 21 -8 42 -19z
m2685 -3 c17 -12 51 -27 75 -33 l45 -12 -66 -26 c-37 -15 -85 -30 -108 -33
l-41 -7 15 24 c8 13 21 43 28 67 7 23 14 42 17 42 2 0 18 -10 35 -22z m1025
-54 c15 -11 36 -38 48 -61 l20 -40 32 28 c98 88 262 13 262 -121 0 -42 -33
-104 -73 -134 -18 -14 -77 -50 -132 -81 -123 -70 -162 -98 -171 -127 -6 -20
-9 -17 -21 24 -8 29 -44 88 -94 154 -107 143 -122 174 -117 239 8 96 70 149
166 142 32 -2 64 -12 80 -23z m-2859 -55 c-13 -58 -34 -94 -79 -138 -47 -45
-116 -79 -131 -64 -6 6 -21 41 -35 77 -18 49 -21 68 -11 71 97 30 131 42 182
66 82 38 85 37 74 -12z m767 -96 c9 -64 -2 -128 -33 -184 -42 -77 -44 -78
-113 -23 -33 27 -60 52 -60 56 0 4 27 38 61 75 33 37 72 87 87 111 24 37 28
40 39 26 7 -9 15 -37 19 -61z m-2761 -438 c13 -52 43 -103 74 -124 32 -23 126
-50 181 -52 22 -1 12 -5 -30 -10 -172 -22 -218 -77 -243 -289 l-13 -105 -7 90
c-15 210 -73 284 -240 302 l-62 7 60 8 c172 22 228 93 243 308 l6 95 12 -100
c6 -55 15 -113 19 -130z m3058 77 l32 -34 -50 6 c-27 4 -74 14 -104 22 l-53
15 53 48 54 49 18 -36 c9 -20 32 -52 50 -70z m-989 -70 c7 -11 4 -12 -12 -3
-28 15 -142 121 -142 132 0 5 21 9 48 10 26 0 56 4 67 8 19 8 20 3 25 -63 3
-39 9 -77 14 -84z m2634 72 c-6 -25 -210 -243 -312 -333 -192 -171 -459 -360
-491 -347 -30 11 -13 32 63 80 213 135 445 332 612 520 83 94 106 114 117 104
8 -6 13 -17 11 -24z m-983 -612 c34 -119 90 -165 220 -180 l70 -8 -73 -12
c-151 -26 -200 -75 -228 -231 -7 -42 -14 -105 -15 -141 l-2 -65 -8 85 c-12
116 -35 216 -60 256 -29 47 -82 76 -174 95 -66 14 -73 17 -39 18 62 2 141 29
179 62 48 42 73 117 88 262 l12 122 7 -103 c4 -56 14 -128 23 -160z m-3290 11
c15 -22 27 -29 80 -49 17 -6 15 -8 -13 -14 -59 -14 -90 -62 -93 -145 0 -22 -4
-15 -13 25 -10 46 -31 100 -39 100 -1 0 -20 7 -42 14 -33 12 -37 16 -20 21 52
17 65 26 80 55 9 17 19 54 23 83 l6 52 8 -59 c4 -32 15 -70 23 -83z"/>
<path d="M5723 5265 c-38 -16 -73 -68 -73 -108 0 -15 9 -46 21 -68 22 -43 247
-285 264 -283 10 1 144 98 246 178 86 68 110 137 69 204 -23 37 -58 54 -113
54 -49 -1 -93 -34 -142 -108 l-38 -56 -33 67 c-40 81 -59 103 -101 121 -40 17
-59 17 -100 -1z"/>
<path d="M6276 3676 c-4 -23 -15 -55 -25 -72 l-18 -30 61 -2 c33 0 70 -2 80
-4 15 -2 21 5 28 35 4 21 15 51 23 67 l16 30 -48 0 c-27 0 -62 4 -80 9 -31 9
-31 9 -37 -33z"/>
<path d="M2973 3816 c-40 -18 -43 -47 -8 -81 36 -37 111 -35 148 3 15 15 27
35 27 43 0 36 -114 59 -167 35z"/>
<path d="M3922 3811 l-43 -20 16 -30 c20 -39 43 -51 98 -51 38 0 49 5 71 31
31 37 33 55 6 69 -40 21 -103 22 -148 1z"/>
<path d="M1531 5660 c21 -22 50 -61 65 -86 l27 -46 20 38 c10 22 37 60 59 87
l39 47 -124 0 -124 0 38 -40z"/>
</g>
</svg>
