<svg width="172" height="28" viewBox="0 0 172 28" fill="none" xmlns="http://www.w3.org/2000/svg">
<path fill-rule="evenodd" clip-rule="evenodd" d="M18.4338 8.86764H18.2592L12.9425 28H7.41233L0 0H6.07346L10.4782 20.2772H10.6334L15.8725 0H20.8205L26.0596 20.2772H26.2148L30.6389 0H36.7124L29.2807 28H23.7505L18.4338 8.86764ZM44.9405 23.149H57.6307V28H39.0805V0H57.6307V4.8316H44.9405V11.5842H56.9128V16.0859H44.9405V23.149ZM60.4645 28H82.0806V23.149H67.5275V23.0132L81.6925 3.80319V0H60.7943V4.8316H74.6876V4.98683L60.4645 24.1774V28ZM164.857 0H171.648V28H166.429V9.10048H166.274L158.667 27.7283H154.98L147.374 9.10048H147.219V28H141.999V0H148.79L156.746 19.8503H156.901L164.857 0ZM87.7333 14C87.7333 9.50083 92.0325 4.9 98.5833 4.9H123.083C129.634 4.9 133.933 9.50083 133.933 14C133.933 18.4992 129.634 23.1 123.083 23.1H98.5833C92.0325 23.1 87.7333 18.4992 87.7333 14ZM82.8333 14C82.8333 6.26801 89.8848 0 98.5833 0H123.083C131.782 0 138.833 6.26801 138.833 14C138.833 21.732 131.782 28 123.083 28H98.5833C89.8848 28 82.8333 21.732 82.8333 14Z" fill="#181819"/>
</svg>
