<svg width="1440" height="358" viewBox="0 0 1440 358" fill="none" xmlns="http://www.w3.org/2000/svg">
<g clip-path="url(#clip0_104_7089)">
<path d="M1309.67 168.234C1308.97 169.95 1307.92 171.358 1306.64 172.29C1307.98 173.24 1309.07 174.712 1309.78 176.515C1310.48 174.799 1311.53 173.391 1312.81 172.459C1311.47 171.514 1310.37 170.04 1309.67 168.234ZM1309.67 150.237C1309.67 170.178 1311.24 172.353 1326.11 172.374L1326.01 172.374C1311.32 172.374 1309.75 174.592 1309.75 194.512C1309.75 174.592 1308.18 172.395 1293.31 172.395L1293.4 172.395C1308.13 172.395 1309.76 170.177 1309.76 150.279L1309.67 150.237Z" fill="white"/>
<path d="M1312.81 309.546C1312.81 297.506 1311.78 296.192 1302.45 296.192C1311.78 296.192 1312.81 294.879 1312.83 282.839C1312.83 294.879 1313.85 296.192 1323.19 296.192C1313.85 296.192 1312.81 297.506 1312.81 309.546Z" fill="white"/>
<path d="M767.59 142.958C767.59 130.918 766.569 129.604 757.23 129.604C766.569 129.604 767.59 128.291 767.612 116.251C767.612 128.291 768.633 129.604 777.972 129.604C768.633 129.604 767.59 130.918 767.59 142.958Z" fill="white"/>
<path d="M670.061 332.21C670.061 320.17 669.04 318.856 659.701 318.856C669.04 318.856 670.061 317.543 670.083 305.503C670.083 317.543 671.104 318.856 680.443 318.856C671.104 318.856 670.061 320.17 670.061 332.21Z" fill="white"/>
<ellipse opacity="0.7" cx="1155.33" cy="227.29" rx="2.01897" ry="2.02167" fill="white"/>
<ellipse opacity="0.7" cx="739.012" cy="245.632" rx="2.01897" ry="2.02167" fill="white"/>
<ellipse opacity="0.7" cx="884.975" cy="225.268" rx="2.01897" ry="2.02167" fill="white"/>
<ellipse opacity="0.7" cx="1014.19" cy="307.524" rx="2.01897" ry="2.02167" fill="white"/>
<path d="M227.845 338.672C227.845 326.632 226.824 325.318 217.484 325.318C226.824 325.318 227.845 324.005 227.866 311.964C227.866 324.005 228.888 325.318 238.227 325.318C228.888 325.318 227.845 326.632 227.845 338.672Z" fill="white"/>
<line y1="-0.2" x2="50.5196" y2="-0.2" transform="matrix(-0.904028 -0.427473 0.426538 -0.90447 220.448 321.831)" stroke="white" stroke-width="0.4"/>
<ellipse opacity="0.7" cx="169.019" cy="298.214" rx="2.01897" ry="2.02167" fill="white"/>
<g clip-path="url(#clip1_104_7089)">
<path d="M312.806 245.391C312.806 233.351 311.785 232.038 302.445 232.038C311.785 232.038 312.806 230.724 312.827 218.684C312.827 230.724 313.848 232.038 323.188 232.038C313.848 232.038 312.806 233.351 312.806 245.391Z" fill="white"/>
<path d="M122.806 275.391C122.806 263.351 121.785 262.038 112.445 262.038C121.785 262.038 122.806 260.724 122.827 248.684C122.827 260.724 123.848 262.038 133.188 262.038C123.848 262.038 122.806 263.351 122.806 275.391Z" fill="white"/>
<ellipse opacity="0.7" cx="313.188" cy="291.206" rx="1.00948" ry="1.01084" fill="white"/>
<ellipse opacity="0.7" cx="96.1488" cy="150.022" rx="2.01897" ry="2.02167" fill="white"/>
<path d="M284.346 166.624C284.346 160.031 283.79 159.312 278.703 159.312C283.79 159.312 284.346 158.593 284.357 152C284.357 158.593 284.914 159.312 290 159.312C284.914 159.312 284.346 160.031 284.346 166.624Z" fill="white"/>
<line y1="-0.2" x2="30.4315" y2="-0.2" transform="matrix(-0.381891 0.924208 -0.92238 -0.386284 281.393 162.867)" stroke="white" stroke-width="0.4"/>
<path fill-rule="evenodd" clip-rule="evenodd" d="M262.054 200.804C260.872 199.52 260.99 197.681 262.05 196.669C262.899 195.86 264.14 195.488 265.254 195.922C265.622 196.065 265.976 196.296 266.298 196.629L266.3 196.631L266.305 196.628L266.305 196.626C266.26 196.166 266.314 195.744 266.445 195.368C266.843 194.225 267.949 193.5 269.112 193.369C270.563 193.207 272.034 194.303 272.245 196.042C272.393 197.26 271.699 198.731 271.018 200.172C270.561 201.138 270.111 202.091 269.925 202.946C269.892 203.095 269.868 203.241 269.853 203.384C269.814 203.747 269.836 204.089 269.942 204.401L269.942 204.402L269.943 204.406C269.951 204.43 269.898 204.454 269.887 204.434L269.883 204.427C269.714 204.145 269.469 203.908 269.169 203.704C269.051 203.623 268.924 203.548 268.79 203.477C268.02 203.068 267.007 202.799 265.98 202.526C264.447 202.119 262.883 201.704 262.054 200.804Z" fill="white"/>
</g>
<g clip-path="url(#clip2_104_7089)">
<path d="M1086.35 145.166C1086.35 133.125 1087.38 131.812 1096.72 131.812C1087.38 131.812 1086.35 130.499 1086.33 118.458C1086.33 130.499 1085.31 131.812 1075.97 131.812C1085.31 131.812 1086.35 133.125 1086.35 145.166Z" fill="white"/>
<ellipse opacity="0.7" cx="1.00948" cy="1.01084" rx="1.00948" ry="1.01084" transform="matrix(-1 0 0 1 1212.15 172.636)" fill="white"/>
</g>
<path d="M889.806 332.786C889.107 334.502 888.055 335.91 886.776 336.842C888.115 337.792 889.21 339.265 889.916 341.067C890.615 339.351 891.667 337.943 892.946 337.011C891.604 336.067 890.508 334.593 889.806 332.786ZM889.806 314.789C889.806 334.73 891.376 336.905 906.245 336.927L906.15 336.927C891.455 336.927 889.885 339.145 889.885 359.064C889.885 339.145 888.315 336.948 873.446 336.948L873.54 336.948C888.267 336.948 889.9 334.73 889.9 314.831L889.806 314.789Z" fill="white"/>
<ellipse opacity="0.7" cx="2.01945" cy="2.02119" rx="2.01945" ry="2.02119" transform="matrix(0.906327 -0.422577 0.421648 0.90676 1013.47 336.453)" fill="white"/>
<path d="M1345.6 326.45C1345.6 314.409 1344.58 313.096 1335.24 313.096C1344.58 313.096 1345.6 311.783 1345.63 299.742C1345.63 311.783 1346.65 313.096 1355.99 313.096C1346.65 313.096 1345.6 314.409 1345.6 326.45Z" fill="white"/>
<ellipse opacity="0.7" cx="691.276" cy="241.114" rx="1.00948" ry="1.01084" fill="white"/>
<ellipse opacity="0.7" cx="1193.62" cy="295.699" rx="2.01897" ry="2.02167" fill="white"/>
<path fill-rule="evenodd" clip-rule="evenodd" d="M1113.43 304.29C1112.93 302.097 1114.24 300.126 1116.08 299.685C1117.54 299.334 1119.17 299.723 1120.14 300.926C1120.46 301.324 1120.71 301.811 1120.85 302.389L1120.86 302.393H1120.86L1120.86 302.391C1121.11 301.849 1121.44 301.415 1121.83 301.081C1123.01 300.066 1124.71 299.975 1126.1 300.581C1127.82 301.34 1128.77 303.511 1127.89 305.583C1127.27 307.035 1125.55 308.223 1123.86 309.387C1122.73 310.167 1121.62 310.936 1120.86 311.768C1120.73 311.913 1120.61 312.059 1120.5 312.208C1120.22 312.588 1120.03 312.982 1119.94 313.398L1119.94 313.399L1119.94 313.405C1119.94 313.437 1119.86 313.429 1119.86 313.399L1119.86 313.389C1119.85 312.966 1119.73 312.544 1119.53 312.122C1119.45 311.956 1119.35 311.79 1119.25 311.624C1118.65 310.671 1117.69 309.716 1116.71 308.748C1115.26 307.303 1113.78 305.829 1113.43 304.29Z" fill="white"/>
<line opacity="0.3" y1="-0.2" x2="91.7841" y2="-0.2" transform="matrix(-0.961997 0.273059 -0.272383 -0.962189 1109.93 309.816)" stroke="white" stroke-width="0.4"/>
<ellipse opacity="0.7" cx="1251.69" cy="323.233" rx="1.00948" ry="1.01084" fill="white"/>
<ellipse opacity="0.7" cx="988.156" cy="325.443" rx="1.00948" ry="1.01084" fill="white"/>
<ellipse opacity="0.7" cx="1042.76" cy="253.689" rx="1.00948" ry="1.01084" fill="white"/>
<ellipse opacity="0.7" cx="735.616" cy="303.886" rx="1.00948" ry="1.01084" fill="white"/>
<ellipse opacity="0.7" cx="952.876" cy="242.125" rx="2.01897" ry="2.02167" fill="white"/>
</g>
<defs>
<clipPath id="clip0_104_7089">
<rect width="1307" height="353" fill="white" transform="translate(81 5)"/>
</clipPath>
<clipPath id="clip1_104_7089">
<rect width="332" height="218" fill="white" transform="translate(7 129)"/>
</clipPath>
<clipPath id="clip2_104_7089">
<rect width="556" height="134" fill="white" transform="matrix(-1 0 0 1 1436 99)"/>
</clipPath>
</defs>
</svg>
